<svg width="100%" height="100%" viewBox="0 0 600 600" version="1.1" xmlns="http://www.w3.org/2000/svg" xmlns:xlink="http://www.w3.org/1999/xlink" xml:space="preserve" xmlns:serif="http://www.serif.com/" style="fill-rule:evenodd;clip-rule:evenodd;stroke-linejoin:round;stroke-miterlimit:2;"><g><path d="M201.258,262.593c0,0 -32.011,20.222 -58.244,51.45c-26.574,31.68 -39.262,55.059 -39.262,55.059c0,0 29.071,-7.291 61.997,-17.341c13.462,-4.101 18.81,-4.848 24.017,-10.22c6.64,-6.682 1.493,-24.744 5.951,-34.757c5.084,-11.312 10.365,-17.602 28.761,-21.08c29.419,-5.522 59.923,12.634 80.958,-11.709c12.945,-15.035 11.489,-24.02 14.026,-34.774c2.866,-12.012 17.886,-25.923 17.886,-25.923c-25.414,22.632 -33.698,30.554 -61.635,45.966c-18.941,10.42 -35.026,16.705 -52.876,17.582c-17.85,0.877 -21.579,-14.253 -21.579,-14.253Z" style="fill:#082653;fill-rule:nonzero;"/><path d="M388.6,68.6c18.6,0 46.3,2.4 57.1,7.2c10.8,4.8 18.5,12 23.2,21.5c4.7,9.5 7,22.4 7,38.4l0,52c0,10.8 1.4,19.1 4.1,25c2.8,5.9 6.8,10 12.2,12.4c5.4,2.4 12.9,3.6 22.5,3.6l0,14.8c-9.7,0 -17.3,1.2 -22.7,3.6c-5.4,2.4 -9.5,6.6 -12.2,12.5c-2.7,5.9 -4,14.3 -4,24.9l0,52c0,16.1 -2.3,28.9 -7,38.4c-4.7,9.5 -12.4,16.7 -23.2,21.5c-10.8,4.8 -38.5,7.2 -57.1,7.2l-4.5,0l0,-14.6c9.5,0 29.6,-0.5 34.3,-1.5c4.7,-1 8.6,-2.6 11.5,-4.6c2.9,-2 5.4,-4.7 7.3,-7.9c1.9,-3.2 3.4,-7.7 4.5,-13.5c1.1,-5.8 1.6,-13.4 1.6,-22.9l0,-34.9c0,-12.1 1,-22.2 3.2,-30.3c2.1,-8.1 5.8,-15.1 11.3,-21.1c5.4,-5.9 12.8,-10.8 22.1,-14.7l0,-3.2c-9.1,-3.7 -16.5,-8.6 -22,-14.8c-5.6,-6.1 -9.4,-13.3 -11.4,-21.5c-2,-8.2 -3.1,-18.1 -3.1,-29.8l0,-34.9c0,-9.5 -0.5,-17.1 -1.6,-22.9c-1.1,-5.8 -2.6,-10.3 -4.5,-13.5c-1.9,-3.2 -4.4,-5.9 -7.3,-7.9c-2.9,-2 -6.8,-3.6 -11.5,-4.6c-4.7,-1 -24.9,-1.5 -34.3,-1.5l0,-14.4l4.5,0Z" style="fill:#0071bc;fill-rule:nonzero;"/><path d="M415.5,94.3c-12.8,-4.5 -40,-2.7 -40,-2.7c-34.4,3.5 -64.3,16.9 -64.3,16.9c0,0 17.5,-12.1 36.3,-18.5c12.2,-4.2 21.7,-6.1 28,-7l0,-15.3c-0.3,0.4 -14.8,1.5 -37,10.7c0,0 -53.9,22.7 -86.9,56.2c-44.2,45 -56.8,106.7 -59.1,119.2c0,0 36.7,-91.2 125.1,-123.2c24,-8.7 43.3,-13.6 58,-16.4c10.3,-1.7 10.3,-1.7 19.8,-2.1c11.3,-0.5 35.8,2.8 35.8,2.8c0,0 2,-14.4 -15.7,-20.6Z" style="fill:#0071bc;fill-rule:nonzero;"/><path d="M384,368c-15.2,2.1 -32.1,16.4 -43.2,25c-32.5,24.8 -62,24 -90.1,15.4c-46.7,-14.2 -50.4,-55.1 -50.4,-55.1c0,0 -9.9,5.6 -13.5,16c0,0 -12,25.6 -7.8,63.4c1.5,13.2 7.9,40.9 23.1,60.6c18.3,23.7 45.9,38.6 45.9,38.6c0,0 -6.3,-21.1 13.5,-36.8c13.5,-10.7 30.4,-19.3 39.9,-23.7c2.5,-1.1 4.9,-2 7.2,-3.1l0,0.1c21.9,-10.5 35.4,-21.9 45.6,-33.1c-18.1,8.7 -33.1,8.7 -33.1,8.7c0,0 22.7,-8 34.4,-16.3c7.8,-5.6 14,-13.3 19.8,-20.9l0,-17.7c-2,0.4 -4,0.9 -6,1.7c-6.6,2.5 -14.5,9.6 -14.5,9.6c0,0 3.9,-6.4 9.8,-10.6c2.1,-1.5 6.4,-4.4 10.8,-6.6c4,-2.1 11.5,-3.2 17.5,-3.4c8.1,-0.2 22,0.3 28.8,-2.7c6.8,-3 8.9,-9.9 8.9,-9.9c0,0 3.9,-8.9 3.3,-19.9c-4.4,22.7 -37.1,19 -49.9,20.7Z" style="fill-rule:nonzero;"/><path d="M412.2,174.5c-6.2,-6.5 -22.3,-15.7 -22.3,-15.7c0,0 4.3,-11 18.3,-21.3c6.1,-4.5 12.1,-7.9 17.1,-10.4c-15.5,-2.6 -35.6,-3.1 -59.8,2.1c-68.3,14.6 -97.3,44.5 -112.4,57.2c-20.1,16.9 -46.3,57.2 -46.3,57.2c0,0 54.6,-44.6 111.6,-52.5c45.7,-6.3 83.3,0.5 108.2,8.1c-2.1,-6.1 -6.5,-16.3 -14.4,-24.7Z" style="fill:#29abe2;fill-rule:nonzero;"/><path d="M447.087,418.141l0.997,0l0,-6.201l-1.168,0l0,1.244l-2.069,0l0,-2.926l8.753,0l0,2.926l-2.082,0l0,-1.244l-1.327,0l0,6.201l1.016,0l0,1.74l-4.12,0l0,-1.74Z" style="fill:#0071bc;fill-rule:nonzero;"/><path d="M454.514,418.141l0.895,0l0,-6.138l-0.895,0l0,-1.745l3.961,0l2.837,6.944l2.635,-6.944l4.018,0l0,1.745l-0.895,0l0,6.138l0.882,0l0,1.74l-3.599,0l0,-1.74l0.66,0l0,-5.535l-2.882,7.16l-1.783,0l-2.933,-6.969l0,5.344l0.717,0l0,1.74l-3.618,0l0,-1.74Z" style="fill:#0071bc;fill-rule:nonzero;"/></g></svg>